<svg xmlns="http://www.w3.org/2000/svg" xmlns:xlink="http://www.w3.org/1999/xlink" width="236.435" height="87.655" viewBox="0 0 236.435 87.655">
  <defs>
    <linearGradient id="linear-gradient" x1="1.044" y1="1" x2="-0.241" y2="-0.129" gradientUnits="objectBoundingBox">
      <stop offset="0" stop-color="#feeb00"/>
      <stop offset="0.34" stop-color="#cb7971"/>
      <stop offset="0.576" stop-color="#a522c7"/>
      <stop offset="1" stop-color="#8c83f8"/>
    </linearGradient>
  </defs>
  <path id="交差_10" data-name="交差 10" d="M174.439,77.66V56.418h6.726V78.686c0,1.939.228,4.066,2.394,4.066s2.356-2.128,2.356-4.066V56.418h6.763V77.66c0,6.46-2.052,9.994-9.12,9.994C176.453,87.655,174.439,84.12,174.439,77.66Zm-37.81-.266V66.3c0-6.384,2.2-10.3,9.234-10.3,6.8,0,8.853,3.648,8.853,8.892v2.66h-6.649V64.474c0-1.786-.039-3.686-2.2-3.686s-2.356,1.938-2.356,3.8V79.067c0,2.09.342,3.762,2.356,3.762,2.128,0,2.2-1.9,2.2-3.762v-3.23h6.649V78.5c0,5.244-1.976,9.158-8.853,9.158C138.833,87.655,136.629,83.626,136.629,77.395Zm-71.934-.38V66.678C64.695,60.143,66.9,56,73.929,56c6.8,0,9.006,3.648,9.006,9.005v1.976h-6.65V64.474c0-1.938-.152-3.686-2.281-3.686-2.2,0-2.355,2.013-2.355,3.875V78.915c0,2.09.455,3.914,2.546,3.914s2.66-1.9,2.66-3.991v-3.61H74.081v-3.99h8.892V87.2H78.489l-.381-2.546a5.012,5.012,0,0,1-4.978,3C66.747,87.655,64.695,83.361,64.695,77.015ZM197.011,87.2V56.418h8.018c5.282,0,9.8,1.216,9.8,8.056,0,3.724-1.71,5.662-4.522,6.194,3.571.456,5.472,3.04,5.472,7.411,0,6.384-3.382,9.12-9.311,9.12Zm6.8-4.75h1.444c3,0,3.952-1.52,3.952-4.484,0-3.458-1.026-4.75-3.99-4.75h-1.406Zm0-13.718h1.329c3.078,0,3.724-1.482,3.724-4.066,0-2.432-1.33-3.685-3.876-3.685h-1.177ZM158.441,87.2V56.418h6.8V82.6h7.068v4.6Zm-45.257,0V61.473h-4.637V56.418H124.62v5.054h-4.6V87.2Zm-14.288,0V73.746h-4.75V87.2h-6.8V56.418h6.8V68.882h4.75V56.418h6.84V87.2Zm-45.182,0V56.418h6.8V87.2Zm-9.234,0-6.308-15.96V87.2H32.357V56.418h4.788l6.308,14.82V56.418h5.624V87.2Zm151.487-65.69V10.07C195.966,3.724,198.284,0,205.2,0c6.953,0,9.31,3.724,9.31,10.07V21.508c0,6.346-2.356,10.147-9.31,10.147C198.284,31.655,195.966,27.854,195.966,21.508ZM202.919,8.4V23.218c0,1.748.152,3.61,2.281,3.61s2.355-1.862,2.355-3.61V8.4c0-1.824-.228-3.611-2.355-3.611C203.186,4.788,202.919,6.575,202.919,8.4ZM142.652,21.508V10.07c0-6.346,2.317-10.07,9.234-10.07,6.954,0,9.31,3.724,9.31,10.07V21.508c0,6.346-2.355,10.147-9.31,10.147C144.969,31.655,142.652,27.854,142.652,21.508ZM149.606,8.4V23.218c0,1.748.151,3.61,2.28,3.61s2.356-1.862,2.356-3.61V8.4c0-1.824-.229-3.611-2.356-3.611C149.872,4.788,149.606,6.575,149.606,8.4ZM22.648,21.508V10.07C22.648,3.724,24.966,0,31.882,0c6.954,0,9.31,3.724,9.31,10.07V21.508c0,6.346-2.356,10.147-9.31,10.147C24.966,31.655,22.648,27.854,22.648,21.508ZM29.6,8.4V23.218c0,1.748.152,3.61,2.28,3.61s2.356-1.862,2.356-3.61V8.4c0-1.824-.228-3.611-2.356-3.611C29.867,4.788,29.6,6.575,29.6,8.4ZM230.09,31.2V6.689c-1.1.608-3.04,1.254-4.217,1.861V3.839c1.1-.57,4.559-2.356,5.585-3.42h4.978V31.2Zm-42.9,0-6.308-15.96V31.2h-5.814V.419h4.788l6.308,14.82V.419h5.624V31.2Zm-66.386,0V.419h7.79c8.018,0,10.336,2.888,10.336,9.728V21.318c0,6.917-2.317,9.88-10.26,9.88Zm6.8-4.712h1.064c3.078,0,3.268-1.329,3.268-4.1V8.969c0-2.7-.3-3.8-3.306-3.8H127.6ZM109.4,31.2V.419h6.8V31.2Zm-9.424,0-1.026-6.5H94.43l-1.064,6.5H86.944L92.758.419h7.752l5.738,30.78Zm-4.94-10.564h3.269L96.672,8.627ZM78.85,31.2,74.4,17.594l-.722,1.216V31.2h-6.8V.419h6.8V13L78.85.419H85.5L79.8,14.326,85.766,31.2ZM57.3,31.2l-4.446-13.6-.722,1.216V31.2h-6.8V.419h6.8V13L57.3.419h6.65l-5.7,13.908L64.22,31.2Zm-45.752,0V17.746H6.8V31.2H0V.419H6.8V12.883h4.75V.419h6.84V31.2ZM219.032,9.273c1.975-.039,2.318-1.444,2.318-3.42h-2.622V.419h5.434c0,1.52-.039,2.964-.077,4.218-.152,4.369-1.1,6.536-4.6,6.574Z" fill="url(#linear-gradient)"/>
</svg>
